<?xml version="1.0" encoding="iso-8859-1"?>
<!-- Generator: Adobe Illustrator 19.0.0, SVG Export Plug-In . SVG Version: 6.00 Build 0)  -->
<svg version="1.1" id="Capa_1" xmlns="http://www.w3.org/2000/svg" xmlns:xlink="http://www.w3.org/1999/xlink" x="0px" y="0px"
	 viewBox="0 0 378.4 378.4" style="enable-background:new 0 0 378.4 378.4;" xml:space="preserve">
<g>
	<g>
		<path d="M328.8,150.8H129.6c-0.8-9.6-4.4-17.2-10.4-23.2c-11.2-11.2-27.2-11.2-28-11.2H38.8c-0.8,0-15.2,0.4-26,9.6V88
			c0-3.6-2.8-6.4-6.4-6.4C2.8,81.6,0,84.4,0,88v69.2V234v56.4c0.4,3.6,3.2,6.4,6.4,6.4c3.6,0,6.4-2.8,6.4-6.4V240h352.8v50
			c0,3.6,2.8,6.4,6.4,6.4c3.6,0,6.4-2.8,6.4-6.4v-56v-33.6C378.4,173.2,356.4,150.8,328.8,150.8z M38.8,128.8h52.4
			c2.4,0,22.8,0.8,25.6,22H13.2C16,129.6,36.4,128.8,38.8,128.8z M365.6,227.6H12.8v-7.2h352.8V227.6z M365.6,207.6H12.8v-44.4h316
			c20.4,0,36.8,16.8,36.8,36.8V207.6z"/>
	</g>
</g>
<g>
</g>
<g>
</g>
<g>
</g>
<g>
</g>
<g>
</g>
<g>
</g>
<g>
</g>
<g>
</g>
<g>
</g>
<g>
</g>
<g>
</g>
<g>
</g>
<g>
</g>
<g>
</g>
<g>
</g>
</svg>
